<mxfile host="www.draw.io" modified="2024-03-28T14:41:37.626Z" agent="Mozilla/5.0 (Windows NT 10.0; Win64; x64) AppleWebKit/537.36 (KHTML, like Gecko) Chrome/123.0.0.0 Safari/537.36" etag="8uI1t4CZnw3ysXHuLfGg" version="24.2.0" type="device">
  <diagram name="Page-1" id="8xdnXHokg4jMDPGAzM9s">
    <mxGraphModel dx="1513" dy="753" grid="1" gridSize="10" guides="1" tooltips="1" connect="1" arrows="1" fold="1" page="1" pageScale="1" pageWidth="827" pageHeight="1169" math="0" shadow="0">
      <root>
        <mxCell id="0" />
        <mxCell id="1" parent="0" />
        <mxCell id="INLA20z5PBK0twdt_rMU-9" value="" style="edgeStyle=orthogonalEdgeStyle;rounded=0;orthogonalLoop=1;jettySize=auto;html=1;" edge="1" parent="1" source="INLA20z5PBK0twdt_rMU-1" target="INLA20z5PBK0twdt_rMU-3">
          <mxGeometry relative="1" as="geometry" />
        </mxCell>
        <mxCell id="INLA20z5PBK0twdt_rMU-10" style="edgeStyle=orthogonalEdgeStyle;rounded=0;orthogonalLoop=1;jettySize=auto;html=1;exitX=0.5;exitY=1;exitDx=0;exitDy=0;entryX=0.5;entryY=0;entryDx=0;entryDy=0;" edge="1" parent="1" source="INLA20z5PBK0twdt_rMU-1" target="INLA20z5PBK0twdt_rMU-2">
          <mxGeometry relative="1" as="geometry" />
        </mxCell>
        <mxCell id="INLA20z5PBK0twdt_rMU-11" style="edgeStyle=orthogonalEdgeStyle;rounded=0;orthogonalLoop=1;jettySize=auto;html=1;exitX=0.5;exitY=1;exitDx=0;exitDy=0;entryX=0.5;entryY=0;entryDx=0;entryDy=0;" edge="1" parent="1" source="INLA20z5PBK0twdt_rMU-1" target="INLA20z5PBK0twdt_rMU-4">
          <mxGeometry relative="1" as="geometry" />
        </mxCell>
        <mxCell id="INLA20z5PBK0twdt_rMU-18" style="edgeStyle=orthogonalEdgeStyle;rounded=0;orthogonalLoop=1;jettySize=auto;html=1;exitX=1;exitY=0.5;exitDx=0;exitDy=0;entryX=0.5;entryY=0;entryDx=0;entryDy=0;" edge="1" parent="1" source="INLA20z5PBK0twdt_rMU-1" target="INLA20z5PBK0twdt_rMU-19">
          <mxGeometry relative="1" as="geometry">
            <mxPoint x="-60" y="380" as="targetPoint" />
          </mxGeometry>
        </mxCell>
        <mxCell id="INLA20z5PBK0twdt_rMU-1" value="&lt;b&gt;&lt;font style=&quot;font-size: 16px;&quot;&gt;Input&lt;/font&gt;&lt;/b&gt;" style="rounded=0;whiteSpace=wrap;html=1;fillColor=#f5f5f5;fontColor=#333333;strokeColor=#666666;" vertex="1" parent="1">
          <mxGeometry x="-340" y="50" width="100" height="40" as="geometry" />
        </mxCell>
        <mxCell id="INLA20z5PBK0twdt_rMU-13" style="edgeStyle=orthogonalEdgeStyle;rounded=0;orthogonalLoop=1;jettySize=auto;html=1;exitX=0.5;exitY=1;exitDx=0;exitDy=0;entryX=0.5;entryY=0;entryDx=0;entryDy=0;" edge="1" parent="1" source="INLA20z5PBK0twdt_rMU-2" target="INLA20z5PBK0twdt_rMU-12">
          <mxGeometry relative="1" as="geometry">
            <Array as="points">
              <mxPoint x="-430" y="320" />
              <mxPoint x="-290" y="320" />
            </Array>
          </mxGeometry>
        </mxCell>
        <mxCell id="INLA20z5PBK0twdt_rMU-2" value="&lt;span style=&quot;font-size: 16px;&quot;&gt;&lt;b&gt;1 * 1 Conv, 16&lt;/b&gt;&lt;/span&gt;" style="rounded=0;whiteSpace=wrap;html=1;fillColor=#f8cecc;strokeColor=#b85450;" vertex="1" parent="1">
          <mxGeometry x="-480" y="150" width="100" height="40" as="geometry" />
        </mxCell>
        <mxCell id="INLA20z5PBK0twdt_rMU-6" value="" style="edgeStyle=orthogonalEdgeStyle;rounded=0;orthogonalLoop=1;jettySize=auto;html=1;" edge="1" parent="1" source="INLA20z5PBK0twdt_rMU-3" target="INLA20z5PBK0twdt_rMU-5">
          <mxGeometry relative="1" as="geometry" />
        </mxCell>
        <mxCell id="INLA20z5PBK0twdt_rMU-3" value="&lt;b&gt;&lt;font style=&quot;font-size: 16px;&quot;&gt;1 * 1 Conv, 16&lt;/font&gt;&lt;/b&gt;" style="rounded=0;whiteSpace=wrap;html=1;fillColor=#f8cecc;strokeColor=#b85450;" vertex="1" parent="1">
          <mxGeometry x="-340" y="150" width="100" height="40" as="geometry" />
        </mxCell>
        <mxCell id="INLA20z5PBK0twdt_rMU-8" value="" style="edgeStyle=orthogonalEdgeStyle;rounded=0;orthogonalLoop=1;jettySize=auto;html=1;" edge="1" parent="1" source="INLA20z5PBK0twdt_rMU-4" target="INLA20z5PBK0twdt_rMU-7">
          <mxGeometry relative="1" as="geometry" />
        </mxCell>
        <mxCell id="INLA20z5PBK0twdt_rMU-4" value="&lt;font size=&quot;1&quot;&gt;&lt;b style=&quot;font-size: 16px;&quot;&gt;1 * 1 Conv, 16&lt;/b&gt;&lt;/font&gt;" style="rounded=0;whiteSpace=wrap;html=1;fillColor=#f8cecc;strokeColor=#b85450;" vertex="1" parent="1">
          <mxGeometry x="-200" y="150" width="100" height="40" as="geometry" />
        </mxCell>
        <mxCell id="INLA20z5PBK0twdt_rMU-14" style="edgeStyle=orthogonalEdgeStyle;rounded=0;orthogonalLoop=1;jettySize=auto;html=1;exitX=0.5;exitY=1;exitDx=0;exitDy=0;entryX=0.5;entryY=0;entryDx=0;entryDy=0;" edge="1" parent="1" source="INLA20z5PBK0twdt_rMU-5" target="INLA20z5PBK0twdt_rMU-12">
          <mxGeometry relative="1" as="geometry" />
        </mxCell>
        <mxCell id="INLA20z5PBK0twdt_rMU-5" value="&lt;b&gt;&lt;font style=&quot;font-size: 16px;&quot;&gt;3 * 3 Conv, 32&lt;/font&gt;&lt;/b&gt;" style="rounded=0;whiteSpace=wrap;html=1;fillColor=#f8cecc;strokeColor=#b85450;" vertex="1" parent="1">
          <mxGeometry x="-340" y="240" width="100" height="40" as="geometry" />
        </mxCell>
        <mxCell id="INLA20z5PBK0twdt_rMU-15" style="edgeStyle=orthogonalEdgeStyle;rounded=0;orthogonalLoop=1;jettySize=auto;html=1;exitX=0.5;exitY=1;exitDx=0;exitDy=0;entryX=0.5;entryY=0;entryDx=0;entryDy=0;" edge="1" parent="1" source="INLA20z5PBK0twdt_rMU-7" target="INLA20z5PBK0twdt_rMU-12">
          <mxGeometry relative="1" as="geometry">
            <mxPoint x="-160" y="330" as="targetPoint" />
            <Array as="points">
              <mxPoint x="-150" y="320" />
              <mxPoint x="-290" y="320" />
            </Array>
          </mxGeometry>
        </mxCell>
        <mxCell id="INLA20z5PBK0twdt_rMU-7" value="&lt;font size=&quot;1&quot;&gt;&lt;b style=&quot;font-size: 16px;&quot;&gt;3 * 3 Conv, 8&lt;/b&gt;&lt;/font&gt;" style="rounded=0;whiteSpace=wrap;html=1;fillColor=#f8cecc;strokeColor=#b85450;" vertex="1" parent="1">
          <mxGeometry x="-200" y="240" width="100" height="40" as="geometry" />
        </mxCell>
        <mxCell id="INLA20z5PBK0twdt_rMU-17" value="" style="edgeStyle=orthogonalEdgeStyle;rounded=0;orthogonalLoop=1;jettySize=auto;html=1;" edge="1" parent="1" source="INLA20z5PBK0twdt_rMU-12" target="INLA20z5PBK0twdt_rMU-16">
          <mxGeometry relative="1" as="geometry" />
        </mxCell>
        <mxCell id="INLA20z5PBK0twdt_rMU-12" value="&lt;b&gt;&lt;font style=&quot;font-size: 16px;&quot;&gt;Concatenate&lt;/font&gt;&lt;/b&gt;" style="rounded=0;whiteSpace=wrap;html=1;fillColor=#f5f5f5;fontColor=#333333;strokeColor=#666666;" vertex="1" parent="1">
          <mxGeometry x="-345" y="330" width="110" height="40" as="geometry" />
        </mxCell>
        <mxCell id="INLA20z5PBK0twdt_rMU-21" value="" style="edgeStyle=orthogonalEdgeStyle;rounded=0;orthogonalLoop=1;jettySize=auto;html=1;" edge="1" parent="1" source="INLA20z5PBK0twdt_rMU-16" target="INLA20z5PBK0twdt_rMU-20">
          <mxGeometry relative="1" as="geometry" />
        </mxCell>
        <mxCell id="INLA20z5PBK0twdt_rMU-16" value="&lt;b&gt;&lt;font style=&quot;font-size: 16px;&quot;&gt;1 * 1 Conv, 48&lt;/font&gt;&lt;/b&gt;" style="rounded=0;whiteSpace=wrap;html=1;fillColor=#f8cecc;strokeColor=#b85450;" vertex="1" parent="1">
          <mxGeometry x="-340" y="400" width="100" height="40" as="geometry" />
        </mxCell>
        <mxCell id="INLA20z5PBK0twdt_rMU-22" style="edgeStyle=orthogonalEdgeStyle;rounded=0;orthogonalLoop=1;jettySize=auto;html=1;exitX=0.5;exitY=1;exitDx=0;exitDy=0;entryX=1;entryY=0.5;entryDx=0;entryDy=0;" edge="1" parent="1" source="INLA20z5PBK0twdt_rMU-19" target="INLA20z5PBK0twdt_rMU-20">
          <mxGeometry relative="1" as="geometry" />
        </mxCell>
        <mxCell id="INLA20z5PBK0twdt_rMU-19" value="&lt;b&gt;&lt;font style=&quot;font-size: 16px;&quot;&gt;1 * 1 Conv, 48&lt;/font&gt;&lt;/b&gt;" style="rounded=0;whiteSpace=wrap;html=1;fillColor=#f8cecc;strokeColor=#b85450;" vertex="1" parent="1">
          <mxGeometry x="-130" y="330" width="100" height="40" as="geometry" />
        </mxCell>
        <mxCell id="INLA20z5PBK0twdt_rMU-24" value="" style="edgeStyle=orthogonalEdgeStyle;rounded=0;orthogonalLoop=1;jettySize=auto;html=1;" edge="1" parent="1" source="INLA20z5PBK0twdt_rMU-20" target="INLA20z5PBK0twdt_rMU-23">
          <mxGeometry relative="1" as="geometry" />
        </mxCell>
        <mxCell id="INLA20z5PBK0twdt_rMU-20" value="&lt;b&gt;&lt;font style=&quot;font-size: 16px;&quot;&gt;Add&lt;/font&gt;&lt;/b&gt;" style="rounded=0;whiteSpace=wrap;html=1;fillColor=#f5f5f5;fontColor=#333333;strokeColor=#666666;" vertex="1" parent="1">
          <mxGeometry x="-345" y="460" width="110" height="40" as="geometry" />
        </mxCell>
        <mxCell id="INLA20z5PBK0twdt_rMU-23" value="&lt;b&gt;&lt;font style=&quot;font-size: 16px;&quot;&gt;ReLU&lt;/font&gt;&lt;/b&gt;" style="rounded=0;whiteSpace=wrap;html=1;fillColor=#dae8fc;strokeColor=#6c8ebf;" vertex="1" parent="1">
          <mxGeometry x="-345" y="530" width="110" height="40" as="geometry" />
        </mxCell>
      </root>
    </mxGraphModel>
  </diagram>
</mxfile>
